<svg width="1280" height="640" viewBox="0 0 1280 640" fill="none" xmlns="http://www.w3.org/2000/svg">
  <defs>
    <linearGradient id="bg" x1="96" y1="64" x2="1184" y2="576" gradientUnits="userSpaceOnUse">
      <stop stop-color="#F5E9D4"/>
      <stop offset="0.58" stop-color="#E7F0F3"/>
      <stop offset="1" stop-color="#D7E1ED"/>
    </linearGradient>
    <linearGradient id="panel" x1="232" y1="212" x2="1090" y2="520" gradientUnits="userSpaceOnUse">
      <stop stop-color="#17324D"/>
      <stop offset="1" stop-color="#285980"/>
    </linearGradient>
    <filter id="shadow" x="120" y="120" width="1040" height="430" filterUnits="userSpaceOnUse" color-interpolation-filters="sRGB">
      <feFlood flood-opacity="0" result="BackgroundImageFix"/>
      <feColorMatrix in="SourceAlpha" type="matrix" values="0 0 0 0 0 0 0 0 0 0 0 0 0 0 0 0 0 0 127 0" result="hardAlpha"/>
      <feOffset dy="16"/>
      <feGaussianBlur stdDeviation="24"/>
      <feColorMatrix type="matrix" values="0 0 0 0 0.09 0 0 0 0 0.16 0 0 0 0 0.24 0 0 0 0.18 0"/>
      <feBlend mode="normal" in2="BackgroundImageFix" result="effect1_dropShadow_1_2"/>
      <feBlend mode="normal" in="SourceGraphic" in2="effect1_dropShadow_1_2" result="shape"/>
    </filter>
  </defs>

  <rect width="1280" height="640" fill="url(#bg)"/>
  <circle cx="170" cy="112" r="126" fill="#E8D1A7" fill-opacity="0.72"/>
  <circle cx="1158" cy="504" r="154" fill="#BFD5E6" fill-opacity="0.58"/>
  <path d="M0 540C154 470 261 448 392 462C558 480 702 596 888 592C1029 590 1135 522 1280 456V640H0V540Z" fill="#E8EEF3"/>

  <g filter="url(#shadow)">
    <rect x="168" y="172" width="944" height="326" rx="32" fill="url(#panel)"/>
  </g>

  <rect x="232" y="224" width="232" height="42" rx="21" fill="#F2D09A"/>
  <text x="266" y="251" fill="#17324D" font-family="Helvetica" font-size="20" font-weight="700" letter-spacing="0.16em">STARTER HARNESS</text>

  <text x="232" y="306" fill="#F8FBFD" font-family="Helvetica" font-size="44" font-weight="700">Docs-first starter harnesses</text>
  <text x="232" y="360" fill="#F8FBFD" font-family="Helvetica" font-size="44" font-weight="700">for clearer</text>
  <text x="232" y="414" fill="#F8FBFD" font-family="Helvetica" font-size="44" font-weight="700">AI-to-production handoff</text>

  <text x="232" y="466" fill="#D7E7F3" font-family="Helvetica" font-size="24" font-weight="400">Choose the template that makes later handoff easier.</text>

  <rect x="232" y="530" width="136" height="40" rx="20" fill="#2C8E7B"/>
  <rect x="382" y="530" width="148" height="40" rx="20" fill="#D38A3C"/>
  <rect x="544" y="530" width="102" height="40" rx="20" fill="#B95C47"/>
  <text x="270" y="556" fill="#F8FBFD" font-family="Helvetica" font-size="20" font-weight="700">MINIMAL</text>
  <text x="413" y="556" fill="#F8FBFD" font-family="Helvetica" font-size="20" font-weight="700">BALANCED</text>
  <text x="575" y="556" fill="#F8FBFD" font-family="Helvetica" font-size="20" font-weight="700">FULL</text>
</svg>
